<svg id="Calque_1" data-name="Calque 1" xmlns="http://www.w3.org/2000/svg" viewBox="0 0 186.25 74.6"><defs><style>.cls-1{fill:#9e6032;stroke:#674123;stroke-miterlimit:10;stroke-width:13px;}.cls-2{fill:#e8d4b0;}</style></defs><title>burger_haut</title><path class="cls-1" d="M596.47,415.26H428.06s-24.77-61.6,84.2-61.6S596.47,415.26,596.47,415.26Z" transform="translate(-419.14 -347.16)"/><path class="cls-2" d="M521.7,377.72c-1.25,0-2.08,5.44-2,6.83a2.28,2.28,0,1,0,4.53-.15C524.15,383,523,377.67,521.7,377.72Z" transform="translate(-419.14 -347.16)"/><path class="cls-2" d="M511.7,390.72c-1.25,0-2.08,5.44-2,6.83a2.28,2.28,0,1,0,4.53-.15C514.15,396,513,390.67,511.7,390.72Z" transform="translate(-419.14 -347.16)"/><path class="cls-2" d="M511.7,363.72c-1.25,0-2.08,5.44-2,6.83a2.28,2.28,0,1,0,4.53-.15C514.15,369,513,363.67,511.7,363.72Z" transform="translate(-419.14 -347.16)"/><path class="cls-2" d="M525.45,364.39c-1.07.64.85,5.76,1.57,6.95a2.28,2.28,0,1,0,3.87-2.34C530.17,367.8,526.52,363.74,525.45,364.39Z" transform="translate(-419.14 -347.16)"/><path class="cls-2" d="M499,364.39c1.07.64-.85,5.76-1.57,6.95a2.28,2.28,0,1,1-3.87-2.34C494.26,367.8,497.91,363.74,499,364.39Z" transform="translate(-419.14 -347.16)"/><path class="cls-2" d="M502.7,377.72c-1.25,0-2.08,5.44-2,6.83a2.28,2.28,0,1,0,4.53-.15C505.15,383,504,377.67,502.7,377.72Z" transform="translate(-419.14 -347.16)"/><path class="cls-2" d="M487.88,375.18c-1.13-.55-4.37,3.84-5,5.1a2.28,2.28,0,1,0,4.08,2C487.59,381,489,375.72,487.88,375.18Z" transform="translate(-419.14 -347.16)"/><path class="cls-2" d="M492.88,389.18c-1.13-.55-4.37,3.84-5,5.1a2.28,2.28,0,1,0,4.08,2C492.59,395,494,389.72,492.88,389.18Z" transform="translate(-419.14 -347.16)"/><path class="cls-2" d="M471.88,385.18c-1.13-.55-4.37,3.84-5,5.1a2.28,2.28,0,1,0,4.08,2C471.59,391,473,385.72,471.88,385.18Z" transform="translate(-419.14 -347.16)"/><path class="cls-2" d="M452.88,379.18c-1.13-.55-4.37,3.84-5,5.1a2.28,2.28,0,1,0,4.08,2C452.59,385,454,379.72,452.88,379.18Z" transform="translate(-419.14 -347.16)"/><path class="cls-2" d="M471.6,371.61c-1-.74-5,3-5.82,4.12a2.28,2.28,0,1,0,3.66,2.67C470.26,377.28,472.61,372.35,471.6,371.61Z" transform="translate(-419.14 -347.16)"/><path class="cls-2" d="M539.67,375.18c1.13-.55,4.38,3.84,5,5.1a2.28,2.28,0,1,1-4.08,2C540,381,538.54,375.72,539.67,375.18Z" transform="translate(-419.14 -347.16)"/><path class="cls-2" d="M556,371.61c1-.74,5,3,5.82,4.12a2.28,2.28,0,1,1-3.66,2.67C557.29,377.28,554.94,372.35,556,371.61Z" transform="translate(-419.14 -347.16)"/><path class="cls-2" d="M532.74,390.12c1.12-.54,4.37,3.85,5,5.11a2.28,2.28,0,1,1-4.08,2C533,395.94,531.61,390.67,532.74,390.12Z" transform="translate(-419.14 -347.16)"/><path class="cls-2" d="M553.74,386.12c1.12-.54,4.37,3.85,5,5.11a2.28,2.28,0,1,1-4.08,2C554,391.94,552.61,386.67,553.74,386.12Z" transform="translate(-419.14 -347.16)"/><path class="cls-2" d="M572.74,380.12c1.12-.54,4.37,3.85,5,5.11a2.28,2.28,0,1,1-4.08,2C573,385.94,571.61,380.67,572.74,380.12Z" transform="translate(-419.14 -347.16)"/></svg>