<svg id="Calque_1" data-name="Calque 1" xmlns="http://www.w3.org/2000/svg" viewBox="0 0 186.25 111"><defs><style>.cls-1{fill:#9e6032;stroke:#674123;stroke-miterlimit:10;stroke-width:13px;}.cls-2{fill:#e8d4b0;}</style></defs><title>burger</title><path class="cls-1" d="M596.47,397.06H428.06s-24.77-61.6,84.2-61.6S596.47,397.06,596.47,397.06Z" transform="translate(-419.14 -328.96)"/><path class="cls-1" d="M427.14,399.06h169v18.5a15.9,15.9,0,0,1-15.9,15.9H443a15.9,15.9,0,0,1-15.9-15.9Z" transform="translate(-419.14 -328.96)"/><path class="cls-2" d="M521.7,359.52c-1.25,0-2.08,5.44-2,6.83a2.28,2.28,0,1,0,4.53-.15C524.15,364.8,523,359.47,521.7,359.52Z" transform="translate(-419.14 -328.96)"/><path class="cls-2" d="M511.7,372.52c-1.25,0-2.08,5.44-2,6.83a2.28,2.28,0,1,0,4.53-.15C514.15,377.8,513,372.47,511.7,372.52Z" transform="translate(-419.14 -328.96)"/><path class="cls-2" d="M511.7,345.52c-1.25,0-2.08,5.44-2,6.83a2.28,2.28,0,1,0,4.53-.15C514.15,350.8,513,345.47,511.7,345.52Z" transform="translate(-419.14 -328.96)"/><path class="cls-2" d="M525.45,346.19c-1.07.64.85,5.76,1.57,6.95a2.28,2.28,0,1,0,3.87-2.34C530.17,349.6,526.52,345.54,525.45,346.19Z" transform="translate(-419.14 -328.96)"/><path class="cls-2" d="M499,346.19c1.07.64-.85,5.76-1.57,6.95a2.28,2.28,0,1,1-3.87-2.34C494.26,349.6,497.91,345.54,499,346.19Z" transform="translate(-419.14 -328.96)"/><path class="cls-2" d="M502.7,359.52c-1.25,0-2.08,5.44-2,6.83a2.28,2.28,0,1,0,4.53-.15C505.15,364.8,504,359.47,502.7,359.52Z" transform="translate(-419.14 -328.96)"/><path class="cls-2" d="M487.88,357c-1.13-.55-4.37,3.84-5,5.1a2.28,2.28,0,1,0,4.08,2C487.59,362.79,489,357.52,487.88,357Z" transform="translate(-419.14 -328.96)"/><path class="cls-2" d="M492.88,371c-1.13-.55-4.37,3.84-5,5.1a2.28,2.28,0,1,0,4.08,2C492.59,376.79,494,371.52,492.88,371Z" transform="translate(-419.14 -328.96)"/><path class="cls-2" d="M471.88,367c-1.13-.55-4.37,3.84-5,5.1a2.28,2.28,0,1,0,4.08,2C471.59,372.79,473,367.52,471.88,367Z" transform="translate(-419.14 -328.96)"/><path class="cls-2" d="M452.88,361c-1.13-.55-4.37,3.84-5,5.1a2.28,2.28,0,1,0,4.08,2C452.59,366.79,454,361.52,452.88,361Z" transform="translate(-419.14 -328.96)"/><path class="cls-2" d="M471.6,353.41c-1-.74-5,3-5.82,4.12a2.28,2.28,0,1,0,3.66,2.67C470.26,359.08,472.61,354.15,471.6,353.41Z" transform="translate(-419.14 -328.96)"/><path class="cls-2" d="M539.67,357c1.13-.55,4.38,3.84,5,5.1a2.28,2.28,0,1,1-4.08,2C540,362.79,538.54,357.52,539.67,357Z" transform="translate(-419.14 -328.96)"/><path class="cls-2" d="M556,353.41c1-.74,5,3,5.82,4.12a2.28,2.28,0,1,1-3.66,2.67C557.29,359.08,554.94,354.15,556,353.41Z" transform="translate(-419.14 -328.96)"/><path class="cls-2" d="M532.74,371.92c1.12-.54,4.37,3.85,5,5.11a2.28,2.28,0,1,1-4.08,2C533,377.74,531.61,372.47,532.74,371.92Z" transform="translate(-419.14 -328.96)"/><path class="cls-2" d="M553.74,367.92c1.12-.54,4.37,3.85,5,5.11a2.28,2.28,0,1,1-4.08,2C554,373.74,552.61,368.47,553.74,367.92Z" transform="translate(-419.14 -328.96)"/><path class="cls-2" d="M572.74,361.92c1.12-.54,4.37,3.85,5,5.11a2.28,2.28,0,1,1-4.08,2C573,367.74,571.61,362.47,572.74,361.92Z" transform="translate(-419.14 -328.96)"/></svg>