<svg width="468.293" height="127.293" xmlns="http://www.w3.org/2000/svg">

 <g>
  <title>background</title>
  <rect fill="none" id="canvas_background" height="129.293" width="470.293" y="-1" x="-1"/>
 </g>
 <g>
  <title>Layer 1</title>
  <path stroke-dasharray="5,2,2,2" id="svg_1" fill="#f4f2cd" d="m455.805,48.26189l-443.317,0c-6.897,0 -12.488,-5.591 -12.488,-12.487l0,-13.287c0,-6.897 5.591,-12.488 12.488,-12.488l443.317,0c6.897,0 12.488,5.591 12.488,12.488l0,13.287c0,6.896 -5.591,12.487 -12.488,12.487z"/>
  <path stroke-dasharray="5,2,2,2" id="svg_2" fill="#fffdd8" d="m400.836,121.62789l-333.379,0c-9.957,0 -18.962,-5.914 -22.919,-15.05l-25.254,-58.315l429.725,0l-25.254,58.315c-3.957,9.137 -12.963,15.05 -22.919,15.05z"/>
  <path stroke-dasharray="5,2,2,2" id="svg_3" fill="#fffdd8" d="m434.37255,48.26189l-22.549,52.072c-3.957,9.136 -12.963,15.05 -22.919,15.05l-333.38,0c-1.524,0 -3.012,-0.183 -4.477,-0.451c4.532,4.204 10.538,6.695 16.965,6.695l333.38,0c9.956,0 18.962,-5.914 22.919,-15.05l25.253,-58.316l-15.192,0z"/>
  <g id="svg_4"/>
  <g id="svg_5"/>
  <g id="svg_6"/>
  <g id="svg_7"/>
  <g id="svg_8"/>
  <g id="svg_9"/>
  <g id="svg_10"/>
  <g id="svg_11"/>
  <g id="svg_12"/>
  <g id="svg_13"/>
  <g id="svg_14"/>
  <g id="svg_15"/>
  <g id="svg_16"/>
  <g id="svg_17"/>
  <g id="svg_18"/>
 </g>
</svg>