<svg id="Calque_1" data-name="Calque 1" xmlns="http://www.w3.org/2000/svg" viewBox="0 0 161.83 135.99"><defs><style>.cls-1{fill:#538348;stroke:#1a5628;stroke-miterlimit:10;stroke-width:13px;}</style></defs><title>salade</title><path class="cls-1" d="M566.91,341.17s-31-40.09-90.68-11.05,21.5,45.05,21.5,45.05,63.87,8.48,69.18-6.43A41.31,41.31,0,0,0,566.91,341.17Z" transform="translate(-435.67 -313.06)"/><path class="cls-1" d="M491.34,433s-12.8,4.2-38.5-32.4,3.1-73.52,3.1-73.52,2.43-8.08,10.81-2.68,33,41.07,75,52S491.34,433,491.34,433Z" transform="translate(-435.67 -313.06)"/><path class="cls-1" d="M493.84,437.53c-27.8-7.39,10.51-53.44,18.1-61.08s47.2-22.43,49.6-28.23,15.6-16,24-6.4S607.94,467.84,493.84,437.53Z" transform="translate(-435.67 -313.06)"/><path class="cls-1" d="M491.34,433" transform="translate(-435.67 -313.06)"/></svg>