<svg version="1.1"
      xmlns="http://www.w3.org/2000/svg"
      xmlns:xlink="http://www.w3.org/1999/xlink"  id="snapshot-66513" width="200" height="200" viewBox="0 0 200 200"><desc>This image was made on Patterninja.com</desc><defs>
<!-- image 97900 -->
<g id="transformed-97900" data-image="97900" transform="translate(-35, -18) rotate(135, 35, 18)"><g><svg version="1.1" width="70px" height="36px" viewBox="0 0 70 36"><g id="original-97900"><svg xmlns="http://www.w3.org/2000/svg" viewBox="0 0 122.88 62.63" xmlns:xlink="http://www.w3.org/1999/xlink" version="1.1" preserveAspectRatio="xMidYMid meet">
  <path d="M44.94 20.02c-7.77-8.05-18.67-13.18-27.82-4.34-2.99 2.88-5.13 6.8-6.07 11-1.12 4.98-.28 9.53 1.79 13.28 1.84 3.34 4.65 6.07 7.96 7.95 3.32 1.89 7.1 2.91 10.85 2.8 4.12-.12 8.24-1.64 11.7-4.91 4.89-4.63 9.16-11.55 13.33-18.3 4.56-7.38 9-14.57 14.45-19.43 3.89-3.47 8.05-5.71 12.27-6.94 6.06-1.76 12.12-1.37 17.63.55 5.42 1.88 10.28 5.22 14.02 9.42 3.18 3.56 5.6 7.8 6.92 12.33 1.92 6.6.76 14.51-2.74 21.43-2.48 4.89-6.16 9.38-10.78 12.62-4.75 3.33-10.47 5.34-16.87 5.15-7.32-.22-15.4-3.3-23.73-10.6l6.93-7.92c6.31 5.53 12.08 7.85 17.09 8 3.98.12 7.56-1.15 10.56-3.25 3.13-2.19 5.66-5.3 7.4-8.74 2.36-4.66 3.2-9.75 2.04-13.75-.86-2.96-2.5-5.79-4.69-8.25-2.6-2.92-5.92-5.22-9.56-6.49-3.55-1.23-7.44-1.5-11.28-.38-2.73.79-5.5 2.31-8.19 4.71-4.37 3.9-8.39 10.4-12.51 17.08-4.54 7.35-9.19 14.88-15.03 20.4-5.48 5.19-12.07 7.6-18.67 7.8-5.71.17-11.4-1.34-16.34-4.16-4.96-2.82-9.2-6.96-12-12.04C.36 39.17-.95 32.08.78 24.37 2.17 18.19 5.36 12.4 9.83 8.09c3.01-2.9 6.6-5.15 10.63-6.42C24.52.39 28.98.12 33.7 1.18c6.08 1.37 12.51 4.96 18.85 11.54l-7.61 7.3z" fill="rgba(15, 169, 144, 1)" stroke="none"/>
</svg>
</g></svg></g></g>
<!-- /image 97900 -->

<!-- image 09429 -->
<g id="transformed-09429" data-image="09429" transform="translate(67.5, 70.5) rotate(297, 32.5, 33.5)"><g><svg version="1.1" width="65px" height="67px" viewBox="0 0 65 67"><g id="original-09429"><svg xmlns="http://www.w3.org/2000/svg" viewBox="0 0 118.307 122.88" xmlns:xlink="http://www.w3.org/1999/xlink" version="1.1" preserveAspectRatio="xMidYMid meet">
  <path d="M10.03 35.673c2.245-10.496 7.201-19.176 14.246-25.362C32.504 3.086 43.498-.674 56.271.1a3.476 3.476 0 0 1-.408 6.939c-10.875-.66-20.153 2.47-27.015 8.496-6.483 5.693-10.883 14.028-12.512 24.258l.639.264 10.389-7.172a3.138 3.138 0 1 1 3.572 5.161l-16.557 11.43a3.138 3.138 0 0 1-4.535-1.067H9.84L.39 31.146a3.142 3.142 0 0 1 5.504-3.029l4.136 7.556zm89.002-12.565l-.206.159 1.016 12.583a3.138 3.138 0 1 1-6.256.512L91.967 16.31a3.137 3.137 0 0 1 3.191-3.395l.001-.002 19.675.446a3.142 3.142 0 0 1-.13 6.281l-9.65-.219a55.716 55.716 0 0 1 9.01 14.762 55.595 55.595 0 0 1 4.243 21.281c0 3.63-.358 7.25-1.064 10.812a55.617 55.617 0 0 1-3.153 10.409 3.471 3.471 0 0 1-6.421-2.638 48.613 48.613 0 0 0 2.745-9.104c.616-3.104.928-6.279.928-9.478a48.695 48.695 0 0 0-3.698-18.643 48.59 48.59 0 0 0-8.612-13.714zM72.658 109.86a55.642 55.642 0 0 1-17.277.427 55.58 55.58 0 0 1-20.552-6.978l-.01-.006-.003.006a55.698 55.698 0 0 1-16.269-14.251 3.473 3.473 0 0 1 5.496-4.245 48.705 48.705 0 0 0 6.512 6.943 48.724 48.724 0 0 0 7.743 5.54l-.003.006a48.691 48.691 0 0 0 17.983 6.101c5.35.705 10.824.517 16.196-.593l-.035-.264-11.405-5.411a3.14 3.14 0 0 1 2.685-5.674l18.177 8.624a3.14 3.14 0 0 1 1.344 4.462l.002.001-10.225 16.816a3.143 3.143 0 0 1-5.376-3.252l5.017-8.252z" fill="rgba(13, 162, 139, 1)" stroke="none"/>
</svg>
</g></svg></g></g>
<!-- /image 09429 -->
</defs><rect x="0" y="0" width="200" height="200" fill="rgba(10, 195, 167, 1)"></rect><use xlink:href="#transformed-97900" transform="translate(-200, -200)"></use><use xlink:href="#transformed-97900" transform="translate(0, -200)"></use><use xlink:href="#transformed-97900" transform="translate(200, -200)"></use><use xlink:href="#transformed-97900" transform="translate(-200, 0)"></use><use xlink:href="#transformed-97900" transform="translate(0, 0)"></use><use xlink:href="#transformed-97900" transform="translate(200, 0)"></use><use xlink:href="#transformed-97900" transform="translate(-200, 200)"></use><use xlink:href="#transformed-97900" transform="translate(0, 200)"></use><use xlink:href="#transformed-97900" transform="translate(200, 200)"></use><use xlink:href="#transformed-09429" transform="translate(-200, -200)"></use><use xlink:href="#transformed-09429" transform="translate(0, -200)"></use><use xlink:href="#transformed-09429" transform="translate(200, -200)"></use><use xlink:href="#transformed-09429" transform="translate(-200, 0)"></use><use xlink:href="#transformed-09429" transform="translate(0, 0)"></use><use xlink:href="#transformed-09429" transform="translate(200, 0)"></use><use xlink:href="#transformed-09429" transform="translate(-200, 200)"></use><use xlink:href="#transformed-09429" transform="translate(0, 200)"></use><use xlink:href="#transformed-09429" transform="translate(200, 200)"></use></svg>