<svg width="512" height="512" xmlns="http://www.w3.org/2000/svg">

 <g>
  <title>Layer 1</title>
  <path fill="#fffdd8" id="svg_1" d="m272.066,512l-32.133,0c-25.989,0 -47.134,-21.144 -47.134,-47.133l0,-10.871c-11.049,-3.53 -21.784,-7.986 -32.097,-13.323l-7.704,7.704c-18.659,18.682 -48.548,18.134 -66.665,-0.007l-22.711,-22.71c-18.149,-18.129 -18.671,-48.008 0.006,-66.665l7.698,-7.698c-5.337,-10.313 -9.792,-21.046 -13.323,-32.097l-10.87,0c-25.988,0 -47.133,-21.144 -47.133,-47.133l0,-32.134c0,-25.989 21.145,-47.133 47.134,-47.133l10.87,0c3.531,-11.05 7.986,-21.784 13.323,-32.097l-7.704,-7.703c-18.666,-18.646 -18.151,-48.528 0.006,-66.665l22.713,-22.712c18.159,-18.184 48.041,-18.638 66.664,0.006l7.697,7.697c10.313,-5.336 21.048,-9.792 32.097,-13.323l0,-10.87c0,-25.989 21.144,-47.133 47.134,-47.133l32.133,0c25.989,0 47.133,21.144 47.133,47.133l0,10.871c11.049,3.53 21.784,7.986 32.097,13.323l7.704,-7.704c18.659,-18.682 48.548,-18.134 66.665,0.007l22.711,22.71c18.149,18.129 18.671,48.008 -0.006,66.665l-7.698,7.698c5.337,10.313 9.792,21.046 13.323,32.097l10.87,0c25.989,0 47.134,21.144 47.134,47.133l0,32.134c0,25.989 -21.145,47.133 -47.134,47.133l-10.87,0c-3.531,11.05 -7.986,21.784 -13.323,32.097l7.704,7.704c18.666,18.646 18.151,48.528 -0.006,66.665l-22.713,22.712c-18.159,18.184 -48.041,18.638 -66.664,-0.006l-7.697,-7.697c-10.313,5.336 -21.048,9.792 -32.097,13.323l0,10.871c0,25.987 -21.144,47.131 -47.134,47.131zm-106.349,-102.83c14.327,8.473 29.747,14.874 45.831,19.025c6.624,1.709 11.252,7.683 11.252,14.524l0,22.148c0,9.447 7.687,17.133 17.134,17.133l32.133,0c9.447,0 17.134,-7.686 17.134,-17.133l0,-22.148c0,-6.841 4.628,-12.815 11.252,-14.524c16.084,-4.151 31.504,-10.552 45.831,-19.025c5.895,-3.486 13.4,-2.538 18.243,2.305l15.688,15.689c6.764,6.772 17.626,6.615 24.224,0.007l22.727,-22.726c6.582,-6.574 6.802,-17.438 0.006,-24.225l-15.695,-15.695c-4.842,-4.842 -5.79,-12.348 -2.305,-18.242c8.473,-14.326 14.873,-29.746 19.024,-45.831c1.71,-6.624 7.684,-11.251 14.524,-11.251l22.147,0c9.447,0 17.134,-7.686 17.134,-17.133l0,-32.134c0,-9.447 -7.687,-17.133 -17.134,-17.133l-22.147,0c-6.841,0 -12.814,-4.628 -14.524,-11.251c-4.151,-16.085 -10.552,-31.505 -19.024,-45.831c-3.485,-5.894 -2.537,-13.4 2.305,-18.242l15.689,-15.689c6.782,-6.774 6.605,-17.634 0.006,-24.225l-22.725,-22.725c-6.587,-6.596 -17.451,-6.789 -24.225,-0.006l-15.694,15.695c-4.842,4.843 -12.35,5.791 -18.243,2.305c-14.327,-8.473 -29.747,-14.874 -45.831,-19.025c-6.624,-1.709 -11.252,-7.683 -11.252,-14.524l0,-22.15c0,-9.447 -7.687,-17.133 -17.134,-17.133l-32.133,0c-9.447,0 -17.134,7.686 -17.134,17.133l0,22.148c0,6.841 -4.628,12.815 -11.252,14.524c-16.084,4.151 -31.504,10.552 -45.831,19.025c-5.896,3.485 -13.401,2.537 -18.243,-2.305l-15.688,-15.689c-6.764,-6.772 -17.627,-6.615 -24.224,-0.007l-22.727,22.726c-6.582,6.574 -6.802,17.437 -0.006,24.225l15.695,15.695c4.842,4.842 5.79,12.348 2.305,18.242c-8.473,14.326 -14.873,29.746 -19.024,45.831c-1.71,6.624 -7.684,11.251 -14.524,11.251l-22.148,0c-9.447,0.001 -17.134,7.687 -17.134,17.134l0,32.134c0,9.447 7.687,17.133 17.134,17.133l22.147,0c6.841,0 12.814,4.628 14.524,11.251c4.151,16.085 10.552,31.505 19.024,45.831c3.485,5.894 2.537,13.4 -2.305,18.242l-15.689,15.689c-6.782,6.774 -6.605,17.634 -0.006,24.225l22.725,22.725c6.587,6.596 17.451,6.789 24.225,0.006l15.694,-15.695c3.568,-3.567 10.991,-6.594 18.244,-2.304z"/>
  <path fill="#fffdd8" id="svg_2" d="m256,367.4c-61.427,0 -111.4,-49.974 -111.4,-111.4s49.973,-111.4 111.4,-111.4s111.4,49.974 111.4,111.4s-49.973,111.4 -111.4,111.4zm0,-192.8c-44.885,0 -81.4,36.516 -81.4,81.4s36.516,81.4 81.4,81.4s81.4,-36.516 81.4,-81.4s-36.515,-81.4 -81.4,-81.4z"/>
 </g>
</svg>